<svg width="70" height="70" viewBox="0 0 70 70" fill="none" xmlns="http://www.w3.org/2000/svg">
<g clip-path="url(#clip0_6_2)">
<path d="M4.89831 -0.0356163C5.00402 -0.0361366 5.10974 -0.0366569 5.21866 -0.037193C5.57335 -0.0386035 5.92802 -0.0380693 6.28272 -0.037543C6.53942 -0.0381517 6.79611 -0.0388783 7.05281 -0.0397126C7.75861 -0.0416527 8.4644 -0.0418786 9.1702 -0.0418184C9.93126 -0.0420437 10.6923 -0.0438299 11.4534 -0.0453995C13.1177 -0.0485244 14.7821 -0.0496065 16.4465 -0.0502976C17.4857 -0.0507428 18.525 -0.0516345 19.5642 -0.052622C22.4417 -0.0552972 25.3191 -0.057551 28.1965 -0.0579372C28.2885 -0.0579501 28.3806 -0.0579629 28.4754 -0.0579762C28.8483 -0.0580279 29.2212 -0.0580777 29.5942 -0.058127C29.8748 -0.0581641 30.1555 -0.0582019 30.4362 -0.0582398C30.5753 -0.0582579 30.5753 -0.0582579 30.7172 -0.0582763C33.6306 -0.0586734 36.5439 -0.0616933 39.4572 -0.0666512C42.731 -0.0722224 46.0048 -0.0754562 49.2785 -0.0755C51.0117 -0.07558 52.7447 -0.0767417 54.4779 -0.080695C55.9537 -0.0840459 57.4294 -0.0850426 58.9052 -0.0829854C59.6581 -0.082005 60.4108 -0.0821235 61.1637 -0.085229C61.8534 -0.088047 62.543 -0.0876858 63.2327 -0.084836C63.4817 -0.0843587 63.7307 -0.085027 63.9796 -0.0869831C65.7606 -0.100069 67.3111 0.0699739 68.6672 1.36392C69.572 2.41017 70.0432 3.51443 70.0357 4.89806C70.0363 5.00378 70.0368 5.10949 70.0373 5.21841C70.0387 5.57311 70.0382 5.92778 70.0377 6.28248C70.0383 6.53917 70.039 6.79587 70.0398 7.05256C70.0418 7.75836 70.042 8.46415 70.0419 9.16995C70.0422 9.93102 70.0439 10.6921 70.0455 11.4531C70.0486 13.1175 70.0497 14.7819 70.0504 16.4462C70.0509 17.4855 70.0518 18.5247 70.0527 19.564C70.0554 22.4414 70.0577 25.3188 70.0581 28.1963C70.0581 28.2883 70.0581 28.3803 70.0581 28.4751C70.0581 28.8481 70.0582 29.221 70.0582 29.5939C70.0583 29.8746 70.0583 30.1553 70.0584 30.4359C70.0584 30.5287 70.0584 30.6214 70.0584 30.717C70.0588 33.6303 70.0618 36.5437 70.0668 39.457C70.0723 42.7308 70.0756 46.0045 70.0756 49.2783C70.0757 51.0114 70.0769 52.7445 70.0808 54.4776C70.0842 55.9534 70.0852 57.4292 70.0831 58.905C70.0821 59.6578 70.0822 60.4106 70.0853 61.1634C70.0882 61.8531 70.0878 62.5428 70.085 63.2325C70.0845 63.4815 70.0851 63.7304 70.0871 63.9794C70.1002 65.7603 69.9301 67.3108 68.6362 68.6669C67.7073 69.4703 66.6378 70.0352 65.3935 70.0328C65.242 70.0332 65.0904 70.0336 64.9343 70.034C64.7695 70.033 64.6047 70.032 64.4348 70.031C64.2572 70.031 64.0796 70.031 63.8966 70.0311C63.4176 70.0311 62.9387 70.0296 62.4597 70.0276C62.0097 70.0261 61.5597 70.026 61.1097 70.0258C59.795 70.0244 58.4804 70.0206 57.1657 70.017C54.2275 70.0114 51.2892 70.0057 48.2619 69.9999C48.2619 61.0667 48.2619 52.1335 48.2619 42.9296C51.2848 42.9296 54.3076 42.9296 57.4221 42.9296C57.4672 42.298 57.5123 41.6663 57.5588 41.0156C57.5937 40.6833 57.6314 40.3514 57.6747 40.0201C57.6969 39.8483 57.7191 39.6764 57.7419 39.4993C57.7763 39.2395 57.7763 39.2395 57.8114 38.9744C57.8327 38.8097 57.8541 38.645 57.8761 38.4753C57.9549 37.8693 58.0346 37.2635 58.1142 36.6577C58.2918 35.2985 58.4695 33.9393 58.6525 32.539C55.2236 32.4939 51.7947 32.4488 48.2619 32.4023C48.2492 30.4228 48.2492 30.4228 48.2363 28.4033C48.2325 27.9899 48.2288 27.5766 48.225 27.1508C48.2238 26.8184 48.2227 26.4861 48.2218 26.1538C48.2187 25.9007 48.2187 25.9007 48.2155 25.6425C48.2151 24.2342 48.317 22.8142 49.2547 21.695C50.569 20.422 52.1928 20.349 53.9224 20.3577C54.0531 20.3578 54.1838 20.358 54.3185 20.3581C54.8033 20.3588 55.2881 20.3607 55.7729 20.3625C57.4013 20.3667 57.4013 20.3667 59.0627 20.371C59.0627 17.3031 59.0627 14.2351 59.0627 11.0742C55.6086 10.8403 55.6086 10.8403 52.1563 10.7576C51.826 10.758 51.4959 10.7547 51.1656 10.7513C47.3328 10.7357 43.7975 11.7823 40.9912 14.5081C38.2713 17.3974 37.5971 21.2194 37.5546 25.0323C37.5518 25.2453 37.5489 25.4583 37.546 25.6713C37.5385 26.2287 37.5317 26.7861 37.5251 27.3435C37.517 28.014 37.5079 28.6845 37.4991 29.3551C37.4857 30.3708 37.4735 31.3865 37.4611 32.4023C34.4383 32.4023 31.4154 32.4023 28.301 32.4023C28.301 35.8763 28.301 39.3503 28.301 42.9296C31.3238 42.9296 34.3467 42.9296 37.4611 42.9296C37.4611 51.8628 37.4611 60.796 37.4611 69.9999C29.093 70.0275 29.093 70.0275 25.5858 70.0333C24.7845 70.0347 23.9831 70.036 23.1818 70.0375C23.0813 70.0377 22.9809 70.0378 22.8774 70.038C21.2583 70.041 19.6391 70.0464 18.0199 70.0527C16.357 70.0591 14.694 70.0629 13.031 70.0643C12.0057 70.0652 10.9804 70.0681 9.95516 70.0737C9.16758 70.0778 8.38004 70.0782 7.59246 70.0773C7.27038 70.0774 6.9483 70.0788 6.62623 70.0814C2.87857 70.1105 2.87857 70.1105 1.33319 68.636C0.42833 67.5897 -0.0428005 66.4854 -0.0353719 65.1018C-0.0358922 64.9961 -0.0364124 64.8904 -0.0369485 64.7815C-0.038359 64.4268 -0.0378252 64.0721 -0.037299 63.7174C-0.0379077 63.4607 -0.0386338 63.204 -0.0394681 62.9473C-0.0414082 62.2415 -0.0416342 61.5357 -0.041574 60.8299C-0.0417992 60.0689 -0.0435858 59.3078 -0.0451555 58.5467C-0.0482804 56.8824 -0.0493621 55.218 -0.0500532 53.5537C-0.0504984 52.5144 -0.0513902 51.4751 -0.0523778 50.4359C-0.0550529 47.5585 -0.0573066 44.681 -0.0576928 41.8036C-0.0577056 41.7116 -0.0577186 41.6195 -0.0577319 41.5247C-0.0577836 41.1518 -0.0578333 40.7789 -0.0578826 40.406C-0.0579198 40.1253 -0.0579574 39.8446 -0.0579953 39.5639C-0.0580073 39.4712 -0.0580194 39.3784 -0.0580318 39.2829C-0.0584289 36.3695 -0.0614488 33.4562 -0.0664067 30.5429C-0.0719778 27.2691 -0.0752119 23.9954 -0.0752557 20.7216C-0.0753356 18.9885 -0.0764974 17.2554 -0.0804507 15.5223C-0.0838016 14.0465 -0.0847986 12.5707 -0.0827413 11.0949C-0.0817609 10.3421 -0.081879 9.58928 -0.0849845 8.83647C-0.0878024 8.14675 -0.0874415 7.4571 -0.0845918 6.76738C-0.0841145 6.51841 -0.0847829 6.26944 -0.0867389 6.02048C-0.0998248 4.23956 0.0702182 2.68905 1.36417 1.33295C2.41041 0.428086 3.51468 -0.043045 4.89831 -0.0356163Z" fill="#2B2B2B"/>
</g>
<defs>
<clipPath id="clip0_6_2">
<rect width="70" height="70" fill="white"/>
</clipPath>
</defs>
</svg>
