<svg width="70" height="70" viewBox="0 0 70 70" fill="none" xmlns="http://www.w3.org/2000/svg">
<g clip-path="url(#clip0_6_4)">
<path d="M4.89831 -0.0356163C5.00402 -0.0361366 5.10974 -0.0366569 5.21866 -0.037193C5.57335 -0.0386035 5.92802 -0.0380693 6.28272 -0.037543C6.53942 -0.0381517 6.79611 -0.0388783 7.05281 -0.0397126C7.75861 -0.0416527 8.4644 -0.0418786 9.1702 -0.0418184C9.93126 -0.0420437 10.6923 -0.0438299 11.4534 -0.0453995C13.1177 -0.0485244 14.7821 -0.0496065 16.4465 -0.0502976C17.4857 -0.0507428 18.525 -0.0516345 19.5642 -0.052622C22.4417 -0.0552972 25.3191 -0.057551 28.1965 -0.0579372C28.2885 -0.0579501 28.3806 -0.0579629 28.4754 -0.0579762C28.8483 -0.0580279 29.2212 -0.0580777 29.5942 -0.058127C29.8748 -0.0581641 30.1555 -0.0582019 30.4362 -0.0582398C30.5753 -0.0582579 30.5753 -0.0582579 30.7172 -0.0582763C33.6306 -0.0586734 36.5439 -0.0616933 39.4572 -0.0666512C42.731 -0.0722224 46.0048 -0.0754562 49.2785 -0.0755C51.0117 -0.07558 52.7448 -0.0767417 54.4779 -0.080695C55.9537 -0.0840459 57.4294 -0.0850426 58.9053 -0.0829854C59.6581 -0.082005 60.4108 -0.0821235 61.1637 -0.085229C61.8534 -0.088047 62.543 -0.0876858 63.2327 -0.084836C63.4817 -0.0843587 63.7307 -0.085027 63.9796 -0.0869831C65.7606 -0.100069 67.3111 0.0699739 68.6672 1.36392C69.572 2.41017 70.0432 3.51443 70.0357 4.89806C70.0363 5.00378 70.0368 5.10949 70.0373 5.21841C70.0387 5.57311 70.0382 5.92778 70.0377 6.28248C70.0383 6.53917 70.039 6.79587 70.0398 7.05256C70.0418 7.75836 70.042 8.46415 70.0419 9.16995C70.0422 9.93102 70.044 10.6921 70.0455 11.4531C70.0486 13.1175 70.0497 14.7819 70.0504 16.4462C70.0509 17.4855 70.0518 18.5247 70.0527 19.564C70.0554 22.4414 70.0577 25.3188 70.0581 28.1963C70.0581 28.2883 70.0581 28.3803 70.0581 28.4751C70.0581 28.8481 70.0582 29.221 70.0582 29.5939C70.0583 29.8746 70.0583 30.1553 70.0584 30.4359C70.0584 30.5287 70.0584 30.6214 70.0584 30.717C70.0588 33.6303 70.0618 36.5437 70.0668 39.457C70.0723 42.7308 70.0756 46.0045 70.0756 49.2783C70.0757 51.0114 70.0769 52.7445 70.0808 54.4776C70.0842 55.9534 70.0852 57.4292 70.0831 58.905C70.0821 59.6578 70.0822 60.4106 70.0854 61.1634C70.0882 61.8531 70.0878 62.5428 70.085 63.2325C70.0845 63.4815 70.0851 63.7304 70.0871 63.9794C70.1002 65.7603 69.9301 67.3108 68.6362 68.6669C67.59 69.5718 66.4857 70.0429 65.1021 70.0355C64.9963 70.036 64.8906 70.0365 64.7817 70.0371C64.427 70.0385 64.0723 70.0379 63.7176 70.0374C63.4609 70.038 63.2043 70.0388 62.9476 70.0396C62.2418 70.0415 61.536 70.0418 60.8302 70.0417C60.0691 70.0419 59.308 70.0437 58.547 70.0453C56.8826 70.0484 55.2183 70.0495 53.5539 70.0502C52.5146 70.0506 51.4754 70.0515 50.4361 70.0525C47.5587 70.0552 44.6813 70.0574 41.8038 70.0578C41.7118 70.0578 41.6198 70.0578 41.525 70.0579C41.1521 70.0579 40.7791 70.058 40.4062 70.058C40.1255 70.058 39.8449 70.0581 39.5642 70.0581C39.4251 70.0581 39.4251 70.0581 39.2831 70.0582C36.3698 70.0585 33.4565 70.0616 30.5431 70.0665C27.2694 70.0721 23.9956 70.0753 20.7218 70.0754C18.9887 70.0755 17.2556 70.0766 15.5225 70.0806C14.0467 70.0839 12.5709 70.0849 11.0951 70.0829C10.3423 70.0819 9.58953 70.082 8.83671 70.0851C8.14699 70.0879 7.45734 70.0876 6.76762 70.0847C6.51865 70.0842 6.26968 70.0849 6.02072 70.0869C4.23981 70.0999 2.68929 69.9299 1.33319 68.636C0.42833 67.5897 -0.0428005 66.4854 -0.0353719 65.1018C-0.0358922 64.9961 -0.0364124 64.8904 -0.0369485 64.7815C-0.038359 64.4268 -0.0378252 64.0721 -0.037299 63.7174C-0.0379077 63.4607 -0.0386338 63.204 -0.0394681 62.9473C-0.0414082 62.2415 -0.0416342 61.5357 -0.041574 60.8299C-0.0417992 60.0689 -0.0435858 59.3078 -0.0451555 58.5467C-0.0482804 56.8824 -0.0493621 55.218 -0.0500532 53.5536C-0.0504984 52.5144 -0.0513902 51.4751 -0.0523778 50.4359C-0.0550529 47.5585 -0.0573066 44.681 -0.0576928 41.8036C-0.0577056 41.7116 -0.0577186 41.6195 -0.0577319 41.5247C-0.0577836 41.1518 -0.0578333 40.7789 -0.0578826 40.406C-0.0579198 40.1253 -0.0579574 39.8446 -0.0579953 39.5639C-0.0580073 39.4712 -0.0580194 39.3784 -0.0580318 39.2829C-0.0584289 36.3695 -0.0614488 33.4562 -0.0664067 30.5429C-0.0719778 27.2691 -0.0752119 23.9954 -0.0752557 20.7216C-0.0753356 18.9885 -0.0764974 17.2554 -0.0804507 15.5223C-0.0838016 14.0465 -0.0847986 12.5707 -0.0827413 11.0949C-0.0817609 10.3421 -0.081879 9.58928 -0.0849845 8.83647C-0.0878024 8.14675 -0.0874415 7.4571 -0.0845918 6.76738C-0.0841145 6.51841 -0.0847829 6.26944 -0.0867389 6.02048C-0.0998248 4.23956 0.0702182 2.68905 1.36417 1.33295C2.41041 0.428086 3.51468 -0.043045 4.89831 -0.0356163ZM29.8049 14.9365C29.5733 14.9391 29.5733 14.9391 29.3371 14.9417C25.0915 14.994 21.1665 15.442 18.0471 18.5937C17.9558 18.682 17.8645 18.7703 17.7704 18.8613C15.3905 21.3327 15.0486 25.0102 14.9912 28.2612C14.9879 28.4277 14.9847 28.5943 14.9814 28.7659C14.9713 29.3115 14.9623 29.8571 14.9538 30.4028C14.9523 30.4962 14.9508 30.5896 14.9492 30.6858C14.9009 33.6912 14.8992 36.6943 14.9453 39.6996C14.9476 39.8741 14.9499 40.0485 14.9523 40.2282C15.0074 44.126 15.1368 48.2239 17.9103 51.2695C18.0029 51.3729 18.0954 51.4764 18.1907 51.583C20.6198 54.1588 24.065 54.8859 27.4744 54.9975C28.5186 55.0244 29.5628 55.0395 30.6072 55.0513C30.9184 55.0549 31.2295 55.0589 31.5406 55.063C34.4148 55.1002 37.2872 55.1037 40.1613 55.0549C40.3147 55.0526 40.4682 55.0502 40.6262 55.0478C44.5259 54.9848 48.3888 54.7061 51.4064 51.9531C51.4896 51.8824 51.5728 51.8117 51.6585 51.7389C53.9445 49.6659 54.7626 46.4416 54.9611 43.4765C54.9794 42.913 54.9812 42.3501 54.981 41.7864C54.9814 41.6246 54.9819 41.4627 54.9824 41.296C54.9837 40.7649 54.9839 40.2339 54.9841 39.7029C54.9843 39.5182 54.9845 39.3336 54.9847 39.149C54.986 38.1819 54.9866 37.2147 54.9865 36.2476C54.9864 35.3527 54.9878 34.4578 54.99 33.5629C54.9918 32.7892 54.9925 32.0155 54.9924 31.2418C54.9924 30.7822 54.9929 30.3225 54.9942 29.8628C55.0046 25.9283 54.8927 21.808 52.09 18.7304C51.9975 18.627 51.905 18.5235 51.8096 18.4169C49.3811 15.8418 45.9368 15.1142 42.5281 15.0024C41.486 14.9754 40.4438 14.9603 39.4014 14.9485C39.0904 14.945 38.7794 14.941 38.4685 14.937C35.5802 14.9004 32.6932 14.8941 29.8049 14.9365Z" fill="#2B2B2B"/>
<path d="M31.223 18.439C31.5267 18.4389 31.8305 18.4388 32.1343 18.4386C32.7671 18.4384 33.4 18.4387 34.0329 18.4393C34.8377 18.4401 35.6425 18.4396 36.4473 18.4388C37.0734 18.4383 37.6996 18.4385 38.3257 18.4388C38.6222 18.4389 38.9187 18.4388 39.2152 18.4385C46.97 18.4319 46.97 18.4319 49.492 20.9181C51.9316 23.6482 51.5646 27.8144 51.5609 31.2233C51.561 31.527 51.5612 31.8308 51.5613 32.1346C51.5615 32.7674 51.5612 33.4003 51.5606 34.0332C51.5598 34.838 51.5603 35.6428 51.5611 36.4476C51.5616 37.0737 51.5614 37.6999 51.5611 38.326C51.561 38.6225 51.5611 38.919 51.5614 39.2155C51.5678 46.7996 51.5678 46.7996 49.2186 49.3556C46.3676 51.8855 42.3467 51.5651 38.7767 51.5612C38.4729 51.5613 38.1691 51.5615 37.8654 51.5616C37.2325 51.5618 36.5996 51.5615 35.9667 51.5609C35.1619 51.5601 34.3571 51.5606 33.5524 51.5614C32.9262 51.5619 32.3001 51.5617 31.6739 51.5614C31.3774 51.5613 31.081 51.5614 30.7845 51.5617C23.3393 51.568 23.3393 51.568 20.7811 49.3556C19.3097 47.8177 18.7278 45.8742 18.5702 43.7944C18.5593 43.6593 18.5484 43.5241 18.5372 43.3849C18.4238 41.858 18.4172 40.3329 18.4205 38.8026C18.4203 38.4958 18.4201 38.1891 18.4197 37.8823C18.4193 37.2449 18.4199 36.6075 18.4212 35.9701C18.4228 35.1626 18.4219 34.3552 18.4202 33.5478C18.4192 32.916 18.4195 32.2842 18.4203 31.6523C18.4204 31.355 18.4202 31.0577 18.4196 30.7603C18.417 29.2307 18.4497 27.7125 18.5766 26.1876C18.5869 26.0605 18.5972 25.9335 18.6078 25.8025C18.7602 24.1554 19.185 22.6369 20.2342 21.3282C20.3357 21.1872 20.4372 21.0463 20.5418 20.901C23.2568 18.0626 27.6175 18.4351 31.223 18.439ZM44.0489 22.5843C43.5638 23.208 43.3343 23.755 43.3482 24.5497C43.5514 25.2947 43.7966 25.877 44.4676 26.3014C45.1943 26.6601 45.8008 26.7436 46.5782 26.5065C47.3355 26.0778 47.8015 25.5971 48.0725 24.7702C48.189 24.1078 48.027 23.5381 47.6874 22.9662C47.1956 22.3262 46.7078 22.0898 45.9373 21.8751C45.2084 21.8751 44.62 22.1401 44.0489 22.5843ZM27.617 27.8907C27.5211 27.9833 27.4253 28.0758 27.3265 28.1711C25.427 30.1411 24.674 32.8373 24.7165 35.5197C24.8147 38.18 26.0583 40.517 27.8904 42.3829C27.983 42.4788 28.0755 42.5747 28.1708 42.6734C30.1408 44.5729 32.837 45.3259 35.5194 45.2834C38.1797 45.1853 40.5167 43.9416 42.3826 42.1095C42.4785 42.017 42.5744 41.9244 42.6732 41.8291C44.5726 39.8591 45.3256 37.1629 45.2831 34.4805C45.185 31.8202 43.9413 29.4832 42.1092 27.6173C42.0167 27.5214 41.9241 27.4255 41.8288 27.3268C39.8588 25.4273 37.1627 24.6743 34.4802 24.7168C31.8199 24.815 29.4829 26.0586 27.617 27.8907Z" fill="#2B2B2B"/>
<path d="M38.3512 29.0427C38.6583 29.2391 38.9485 29.4472 39.2383 29.6681C39.3793 29.7696 39.5203 29.8711 39.6655 29.9757C40.8134 31.0737 41.6877 32.6102 41.7318 34.2268C41.774 36.1788 41.5424 37.65 40.3321 39.2384C40.2305 39.3794 40.129 39.5204 40.0244 39.6656C38.9265 40.8135 37.3899 41.6878 35.7733 41.7319C33.8214 41.774 32.3501 41.5425 30.7617 40.3321C30.6207 40.2306 30.4798 40.1291 30.3345 40.0245C29.1866 38.9265 28.3124 37.39 28.2682 35.7734C28.2209 33.5912 28.5728 31.8554 30.0824 30.1802C32.2459 28.1147 35.7194 27.5487 38.3512 29.0427Z" fill="#2B2B2B"/>
</g>
<defs>
<clipPath id="clip0_6_4">
<rect width="70" height="70" fill="white"/>
</clipPath>
</defs>
</svg>
