<svg width="600" height="331" viewBox="0 0 600 331" fill="none" xmlns="http://www.w3.org/2000/svg">
<path fill-rule="evenodd" clip-rule="evenodd" d="M212.324 87.6167C210.827 87.3726 223.973 83.1489 237.269 82.2301C250.127 81.3416 277.17 88.2381 265.482 104.215C262.264 108.614 251.091 110.978 251.091 110.978C256.137 96.2057 237.817 90.1739 227.167 88.6878C221.292 87.8681 215.689 88.1651 212.324 87.6167Z" fill="#2B2B2B"/>
<path fill-rule="evenodd" clip-rule="evenodd" d="M137.375 105.263C137.367 104.651 139.814 107.252 151.06 105.333C155.11 104.642 165.055 101.39 171.009 98.4983C177.617 95.2891 197.177 84.8293 205.071 81.5044C238.606 67.3811 268.527 74.7016 273.532 89.1867C279.744 107.166 259.351 111.843 255.074 112.047C250.299 112.275 272.879 109.386 271.357 93.5577C270.207 81.5948 253.049 78.0892 235.571 79.7564C222.342 81.018 208.929 85.9295 202.136 88.4557C185.79 94.5343 173.175 104.276 155.587 107.323C145.871 109.007 137.392 106.575 137.375 105.263Z" fill="#EF7F1A"/>
<path fill-rule="evenodd" clip-rule="evenodd" d="M151.543 75.4674C149.066 75.6518 132.519 82.9652 132.067 91.4737C131.615 99.9822 135.045 106.029 176.999 90.6759C187.78 86.7308 195.815 81.1605 194.365 81.3502C190.335 81.8782 162.112 87.8019 158.341 88.5763C153.265 89.6187 149.226 88.2845 154.303 84.8539C159.38 81.4232 156.029 75.1333 151.543 75.4674Z" fill="#2B2B2B" stroke="#2B2B2B" stroke-width="1.88976" stroke-miterlimit="22.9256"/>
<path fill-rule="evenodd" clip-rule="evenodd" d="M159.845 70.2659C159.006 70.7456 160.701 78.7616 159.077 82.2833C157.454 85.8047 160.108 84.093 171.179 82.2894C184.594 80.1041 207.198 74.3996 228.706 72.6448C255.545 70.4549 272.212 80.4106 270.784 79.1883C261.5 71.2384 246.853 67.8327 232.967 67.2571C204.024 66.0575 160.94 69.6404 159.845 70.2659Z" fill="#2B2B2B" stroke="#2B2B2B" stroke-width="1.88976" stroke-miterlimit="22.9256"/>
<path fill-rule="evenodd" clip-rule="evenodd" d="M159.143 67.0223C159.304 67.4006 240.48 65.1594 246.913 62.9623C253.346 60.7653 248.964 23.6949 256.588 10.1582C266.476 -7.39925 155.265 4.80106 152.155 9.76585C149.663 13.743 159.143 67.0223 159.143 67.0223Z" fill="#2B2B2B" stroke="#2B2B2B" stroke-width="1.88976" stroke-miterlimit="22.9256"/>
<path d="M18.6769 177.933L35.1118 177.941L55.4737 239.493L76.199 177.962L92.394 177.971L107.224 266.211L91.0289 266.203L81.5805 210.475L62.7777 266.188L47.9623 266.18L29.4567 210.448L19.771 266.166L3.39612 266.157L18.6769 177.933Z" fill="#2B2B2B"/>
<path d="M297.701 178.077L346.466 178.102L346.457 194.657L330.382 194.648L330.345 266.326L313.311 266.317L313.348 194.64L297.692 194.632L297.701 178.077ZM399.67 175.91C412.147 175.916 422.861 180.441 431.813 189.482C440.806 198.524 445.299 209.543 445.292 222.539C445.286 235.415 440.841 246.309 431.96 255.222C423.118 264.135 412.379 268.588 399.743 268.581C386.507 268.574 375.513 263.99 366.76 254.829C358.007 245.667 353.634 234.788 353.641 222.192C353.645 213.754 355.689 205.998 359.771 198.922C363.853 191.847 369.454 186.251 376.574 182.136C383.734 177.981 391.433 175.906 399.67 175.91ZM399.482 192.345C391.325 192.341 384.465 195.176 378.904 200.852C373.343 206.527 370.56 213.743 370.555 222.5C370.55 232.257 374.045 239.977 381.04 245.659C386.476 250.1 392.713 252.323 399.751 252.326C407.709 252.33 414.488 249.455 420.089 243.699C425.69 237.944 428.493 230.848 428.498 222.41C428.502 214.013 425.686 206.914 420.051 201.113C414.416 195.272 407.56 192.349 399.482 192.345ZM461.21 178.161L509.375 178.186L509.367 194.621L477.877 194.604L477.868 210.56L509.359 210.576L509.35 226.711L477.86 226.695L477.848 249.907L509.338 249.924L509.33 266.418L461.165 266.394L461.21 178.161ZM519.332 178.191L538.226 178.201L556.686 206.461L575.355 178.22L594.249 178.23L566.156 220.922L595.943 266.463L577.049 266.453L556.671 235.432L536.441 266.432L517.427 266.423L547.261 220.912L519.332 178.191Z" fill="#2B2B2B"/>
<path d="M203.834 103.172C226.291 103.184 245.577 111.327 261.692 127.603C277.878 143.878 285.966 163.712 285.954 187.105C285.942 210.282 277.942 229.892 261.955 245.935C246.039 261.978 226.709 269.993 203.964 269.981C180.139 269.969 160.349 261.717 144.595 245.226C128.84 228.735 120.969 209.153 120.98 186.48C120.988 171.293 124.666 157.331 132.015 144.595C139.363 131.858 149.445 121.787 162.261 114.379C175.149 106.9 189.006 103.165 203.834 103.172ZM203.495 132.755C188.811 132.748 176.464 137.852 166.454 148.067C156.444 158.283 151.435 171.272 151.427 187.036C151.418 204.598 157.709 218.493 170.299 228.721C180.084 236.715 191.311 240.716 203.979 240.722C218.303 240.73 230.506 235.554 240.588 225.194C250.67 214.834 255.715 202.061 255.723 186.873C255.731 171.758 250.663 158.979 240.519 148.537C230.376 138.023 218.034 132.763 203.495 132.755Z" fill="#2B2B2B"/>
<path d="M269.122 131.937C268.868 131.635 268.624 131.388 268.326 131.13C268.324 131.127 268.313 131.118 268.31 131.116C268.128 130.805 267.918 130.52 267.681 130.249C261.093 122.998 253.235 117.869 244.461 113.614C234.383 109.191 226.086 107.352 215.066 106.96C204.299 106.915 196.151 108.422 186.157 112.442C176.913 116.465 170.44 120.821 163.325 127.959C156.675 135.054 152.549 141.424 149.134 150.528C147.891 154.425 143.066 174.718 148.988 176.931C151.01 176.522 159.405 160.641 161.95 157.174C166.407 151.422 170.512 147.518 176.575 143.462C182.402 139.783 187.34 137.689 194.065 136.152C200.788 134.84 206.042 134.747 212.803 135.836C219.267 137.076 223.994 138.861 229.573 142.326C235.035 145.961 237.443 148.39 241.527 153.239C241.66 153.391 241.807 153.517 241.961 153.647C241.962 153.649 241.967 153.657 241.967 153.657C242.082 153.838 242.191 154.009 242.326 154.176C246.466 158.944 248.502 161.732 251.227 167.666C253.78 173.712 254.808 178.668 255.025 185.242C255.048 192.09 254.137 197.265 251.795 203.701C249.227 210.108 246.393 214.651 241.849 219.839C236.897 225.194 232.403 228.643 226.026 232.149C222.206 234.123 205.211 239.94 204.492 241.875C205.756 248.07 226.552 246.466 230.595 245.845C240.116 243.892 247.059 240.805 255.1 235.344C263.255 229.432 268.575 223.707 273.985 215.207C279.513 205.965 282.272 198.145 283.904 187.505C285.235 176.556 284.711 168.078 281.912 157.431C279.08 148.119 275.244 139.563 269.122 131.937Z" fill="#EF7F1A"/>
<path d="M206.311 195.233C211.178 195.236 215.127 191.292 215.129 186.424C215.132 181.556 211.188 177.608 206.32 177.606C201.452 177.603 197.504 181.547 197.501 186.415C197.499 191.283 201.443 195.231 206.311 195.233Z" fill="#2B2B2B" stroke="#2B2B2B" stroke-width="0.514351" stroke-miterlimit="22.9256"/>
<path fill-rule="evenodd" clip-rule="evenodd" d="M251.25 153.499L236.514 168.693L221.777 183.887L217.554 178.103L213.33 172.318L232.29 162.908L251.25 153.499Z" fill="#2B2B2B" stroke="#2B2B2B" stroke-width="0.755906" stroke-miterlimit="22.9256"/>
<path d="M0.788086 308.911L4.38799 306.754C6.91913 311.419 9.84494 313.753 13.1654 313.754C14.5858 313.755 15.9199 313.429 17.1678 312.778C18.4157 312.106 19.3663 311.214 20.0194 310.101C20.6726 308.989 20.9995 307.808 21.0001 306.561C21.0008 305.14 20.5217 303.749 19.5627 302.385C18.2394 300.504 15.8221 298.238 12.3111 295.587C8.78084 292.917 6.58418 290.987 5.72108 289.797C4.22502 287.8 3.47758 285.64 3.47878 283.318C3.47973 281.475 3.92205 279.796 4.80573 278.28C5.68942 276.765 6.92801 275.575 8.52152 274.712C10.1342 273.83 11.8811 273.39 13.762 273.391C15.7582 273.392 17.6197 273.892 19.3466 274.891C21.0927 275.87 22.9343 277.685 24.8715 280.335L21.4153 282.953C19.8234 280.841 18.4613 279.449 17.3293 278.776C16.2164 278.104 14.9978 277.767 13.6734 277.767C11.9652 277.766 10.5638 278.283 9.46922 279.319C8.39385 280.355 7.85578 281.631 7.85499 283.148C7.85452 284.069 8.04599 284.961 8.42942 285.825C8.81285 286.689 9.51292 287.63 10.5297 288.648C11.086 289.186 12.9087 290.597 15.9976 292.883C19.6622 295.591 22.1753 298.001 23.537 300.113C24.8986 302.225 25.5789 304.346 25.5778 306.477C25.5762 309.548 24.404 312.215 22.0613 314.479C19.7377 316.742 16.906 317.873 13.5664 317.872C10.9944 317.87 8.66277 317.188 6.57138 315.824C4.48 314.441 2.55223 312.137 0.788086 308.911ZM37.3986 273.863L41.4581 273.866L41.4521 285.497L47.8435 285.5L47.8417 288.955L41.4503 288.952L41.4359 316.821L37.3765 316.819L37.3909 288.95L31.8919 288.947L31.8937 285.492L37.3926 285.495L37.3986 273.863ZM85.0694 285.519L85.0532 316.843L81.0802 316.841L81.0829 311.457C79.3928 313.51 77.4919 315.054 75.3801 316.09C73.2874 317.125 70.9935 317.642 68.4984 317.641C64.0647 317.638 60.2748 316.034 57.1287 312.827C54.0018 309.601 52.4396 305.684 52.4419 301.078C52.4443 296.568 54.0297 292.71 57.1983 289.507C60.3669 286.303 64.1776 284.702 68.6305 284.705C71.2025 284.706 73.5246 285.254 75.5969 286.349C77.6885 287.444 79.5206 289.086 81.0933 291.275L81.0963 285.517L85.0694 285.519ZM68.9452 288.592C66.6996 288.59 64.6264 289.146 62.7257 290.258C60.8249 291.351 59.3078 292.896 58.1744 294.891C57.0601 296.887 56.5024 298.998 56.5013 301.224C56.5002 303.431 57.0653 305.543 58.1967 307.559C59.328 309.575 60.8435 311.149 62.7431 312.283C64.6619 313.397 66.7153 313.955 68.9034 313.956C71.1106 313.957 73.203 313.401 75.1805 312.289C77.158 311.177 78.6751 309.671 79.7317 307.771C80.8075 305.872 81.346 303.732 81.3473 301.352C81.3491 297.724 80.1511 294.691 77.7532 292.252C75.3744 289.814 72.4384 288.593 68.9452 288.592ZM90.7986 285.522L95.0596 285.524L105.815 309.656L116.278 285.535L120.568 285.538L101.861 328.31L97.5999 328.308L103.653 314.492L90.7986 285.522ZM138.594 278.637L138.596 274.52L161.83 274.532L161.828 278.649L152.385 278.644L152.365 316.878L148.046 316.876L148.066 278.642L138.594 278.637ZM165.711 285.561L169.828 285.563L169.826 290.141C171.055 288.337 172.351 286.994 173.714 286.112C175.078 285.211 176.498 284.76 177.976 284.761C179.089 284.762 180.279 285.117 181.546 285.828L179.442 289.224C178.598 288.859 177.888 288.677 177.312 288.676C175.968 288.676 174.672 289.231 173.424 290.344C172.176 291.437 171.225 293.145 170.571 295.467C170.071 297.252 169.82 300.86 169.817 306.292L169.812 316.887L165.695 316.885L165.711 285.561ZM184.453 285.571L188.513 285.573L188.505 300.198C188.504 303.768 188.694 306.225 189.077 307.569C189.652 309.488 190.745 311.005 192.357 312.119C193.988 313.233 195.926 313.791 198.172 313.792C200.418 313.793 202.318 313.257 203.873 312.183C205.448 311.09 206.533 309.66 207.129 307.895C207.532 306.686 207.735 304.124 207.737 300.208L207.745 285.583L211.862 285.585L211.854 300.959C211.852 305.277 211.341 308.53 210.323 310.718C209.324 312.905 207.807 314.622 205.771 315.869C203.755 317.096 201.222 317.709 198.17 317.708C195.118 317.706 192.566 317.091 190.513 315.861C188.479 314.612 186.954 312.884 185.938 310.676C184.941 308.449 184.443 305.11 184.446 300.657L184.453 285.571ZM247.206 306.533L250.602 308.32C249.487 310.508 248.201 312.273 246.741 313.616C245.282 314.958 243.64 315.984 241.816 316.694C239.993 317.384 237.929 317.728 235.626 317.727C230.521 317.724 226.529 316.052 223.652 312.711C220.775 309.351 219.337 305.559 219.339 301.337C219.341 297.364 220.562 293.823 223.001 290.715C226.093 286.763 230.23 284.788 235.413 284.791C240.748 284.793 245.008 286.821 248.192 290.872C250.456 293.733 251.606 297.304 251.642 301.584L223.485 301.569C223.56 305.216 224.719 308.211 226.964 310.554C229.208 312.877 231.981 314.04 235.282 314.042C236.876 314.042 238.421 313.765 239.918 313.209C241.435 312.653 242.721 311.915 243.777 310.994C244.833 310.073 245.976 308.587 247.206 306.533ZM247.21 298.098C246.674 295.948 245.887 294.23 244.852 292.943C243.835 291.657 242.483 290.62 240.794 289.832C239.105 289.044 237.33 288.65 235.468 288.649C232.397 288.647 229.758 289.634 227.549 291.61C225.936 293.049 224.717 295.207 223.89 298.086L247.21 298.098ZM317.064 281.723L313.78 284.831C311.42 282.507 308.83 280.75 306.009 279.558C303.208 278.348 300.473 277.742 297.805 277.74C294.484 277.739 291.317 278.553 288.303 280.183C285.308 281.813 282.984 284.028 281.332 286.83C279.68 289.612 278.853 292.558 278.852 295.667C278.85 298.853 279.703 301.886 281.409 304.766C283.116 307.627 285.476 309.883 288.488 311.535C291.501 313.168 294.802 313.986 298.391 313.988C302.748 313.99 306.434 312.763 309.448 310.308C312.463 307.853 314.249 304.668 314.808 300.753L301.305 300.746L301.308 296.657L319.561 296.667C319.519 303.212 317.568 308.412 313.708 312.268C309.867 316.105 304.723 318.022 298.274 318.018C290.443 318.014 284.244 315.343 279.679 310.005C276.169 305.896 274.415 301.144 274.418 295.751C274.42 291.74 275.43 288.007 277.447 284.553C279.464 281.099 282.229 278.404 285.742 276.467C289.256 274.512 293.229 273.535 297.663 273.537C301.252 273.539 304.63 274.193 307.796 275.5C310.963 276.788 314.052 278.862 317.064 281.723ZM353.327 306.588L356.723 308.375C355.609 310.562 354.322 312.328 352.862 313.67C351.403 315.013 349.761 316.039 347.938 316.748C346.114 317.438 344.05 317.783 341.747 317.782C336.642 317.779 332.65 316.107 329.773 312.766C326.896 309.406 325.458 305.614 325.46 301.392C325.462 297.418 326.683 293.878 329.122 290.77C332.214 286.818 336.351 284.843 341.534 284.845C346.87 284.848 351.129 286.875 354.313 290.927C356.577 293.788 357.727 297.358 357.763 301.639L329.606 301.624C329.681 305.271 330.84 308.266 333.085 310.608C335.329 312.932 338.102 314.095 341.403 314.096C342.997 314.097 344.542 313.82 346.039 313.264C347.556 312.708 348.842 311.97 349.898 311.049C350.954 310.128 352.097 308.641 353.327 306.588ZM353.331 298.153C352.795 296.003 352.009 294.284 350.973 292.998C349.956 291.711 348.604 290.674 346.915 289.886C345.226 289.099 343.451 288.704 341.589 288.703C338.518 288.702 335.879 289.689 333.67 291.665C332.057 293.103 330.838 295.262 330.011 298.141L353.331 298.153ZM365.314 285.664L369.345 285.666L369.342 291.28C370.955 289.131 372.741 287.529 374.699 286.475C376.658 285.401 378.788 284.865 381.092 284.866C383.433 284.867 385.506 285.463 387.309 286.654C389.132 287.845 390.475 289.448 391.338 291.464C392.2 293.48 392.63 296.618 392.628 300.879L392.62 317.002L388.618 317L388.626 302.057C388.628 298.449 388.475 296.04 388.169 294.831C387.69 292.758 386.789 291.203 385.465 290.165C384.141 289.109 382.414 288.58 380.284 288.579C377.846 288.578 375.657 289.383 373.718 290.994C371.798 292.606 370.53 294.601 369.915 296.981C369.53 298.535 369.337 301.376 369.335 305.502L369.329 316.99L365.298 316.988L365.314 285.664ZM404.82 274.053L408.88 274.055L408.874 285.686L415.265 285.69L415.263 289.144L408.872 289.141L408.858 317.01L404.798 317.008L404.813 289.139L399.314 289.136L399.315 285.681L404.814 285.684L404.82 274.053ZM420.684 273.6L424.715 273.602L424.692 317.018L420.662 317.016L420.684 273.6ZM459.448 306.643L462.844 308.43C461.73 310.617 460.443 312.382 458.983 313.725C457.524 315.068 455.882 316.094 454.059 316.803C452.235 317.493 450.171 317.837 447.868 317.836C442.763 317.834 438.771 316.162 435.894 312.821C433.017 309.46 431.579 305.669 431.581 301.446C431.583 297.473 432.804 293.933 435.243 290.824C438.335 286.872 442.472 284.897 447.655 284.9C452.991 284.903 457.25 286.93 460.434 290.981C462.698 293.842 463.848 297.413 463.884 301.693L435.727 301.679C435.802 305.326 436.961 308.32 439.206 310.663C441.45 312.987 444.223 314.149 447.524 314.151C449.118 314.152 450.663 313.874 452.16 313.318C453.677 312.763 454.963 312.024 456.019 311.104C457.075 310.183 458.218 308.696 459.448 306.643ZM459.452 298.207C458.916 296.057 458.13 294.339 457.094 293.053C456.077 291.766 454.725 290.729 453.036 289.941C451.347 289.153 449.572 288.759 447.71 288.758C444.639 288.756 442 289.744 439.791 291.719C438.178 293.158 436.959 295.317 436.132 298.195L459.452 298.207ZM471.406 285.718L475.408 285.721L475.405 291.133C476.808 289.138 478.248 287.68 479.726 286.759C481.761 285.532 483.902 284.919 486.147 284.92C487.664 284.921 489.103 285.219 490.465 285.815C491.828 286.41 492.941 287.207 493.804 288.206C494.667 289.185 495.415 290.596 496.047 292.439C497.392 289.983 499.073 288.122 501.089 286.857C503.104 285.572 505.274 284.93 507.596 284.931C509.765 284.932 511.674 285.48 513.325 286.575C514.994 287.67 516.231 289.196 517.036 291.155C517.841 293.113 518.243 296.05 518.241 299.965L518.232 317.066L514.115 317.064L514.124 299.963C514.125 296.604 513.887 294.301 513.408 293.053C512.928 291.786 512.104 290.768 510.933 290C509.782 289.231 508.4 288.847 506.788 288.846C504.83 288.845 503.035 289.42 501.403 290.571C499.79 291.721 498.609 293.256 497.86 295.175C497.11 297.094 496.734 300.299 496.732 304.791L496.726 317.055L492.724 317.053L492.732 301.017C492.734 297.236 492.495 294.674 492.016 293.33C491.556 291.967 490.741 290.882 489.571 290.075C488.4 289.249 487.009 288.836 485.397 288.835C483.535 288.834 481.788 289.399 480.156 290.531C478.543 291.643 477.343 293.149 476.555 295.049C475.786 296.949 475.401 299.857 475.399 303.772L475.392 317.044L471.39 317.042L471.406 285.718ZM557.979 285.763L557.963 317.087L553.99 317.085L553.992 311.701C552.302 313.754 550.401 315.298 548.289 316.333C546.197 317.369 543.903 317.886 541.408 317.885C536.974 317.882 533.184 316.278 530.038 313.071C526.911 309.845 525.349 305.928 525.351 301.322C525.354 296.811 526.939 292.954 530.108 289.751C533.276 286.547 537.087 284.946 541.54 284.948C544.112 284.95 546.434 285.498 548.506 286.593C550.598 287.688 552.43 289.33 554.003 291.519L554.006 285.761L557.979 285.763ZM541.855 288.835C539.609 288.834 537.536 289.39 535.635 290.502C533.734 291.595 532.217 293.139 531.084 295.135C529.97 297.13 529.412 299.241 529.411 301.468C529.41 303.675 529.975 305.787 531.106 307.803C532.237 309.819 533.753 311.393 535.652 312.527C537.571 313.641 539.625 314.198 541.813 314.2C544.02 314.201 546.112 313.645 548.09 312.533C550.067 311.421 551.584 309.915 552.641 308.015C553.717 306.116 554.255 303.976 554.257 301.596C554.258 297.968 553.06 294.935 550.663 292.496C548.284 290.057 545.348 288.837 541.855 288.835ZM567.076 285.768L571.107 285.77L571.104 291.384C572.718 289.235 574.503 287.633 576.462 286.579C578.42 285.505 580.551 284.969 582.854 284.97C585.196 284.971 587.268 285.567 589.072 286.758C590.894 287.949 592.237 289.552 593.1 291.568C593.963 293.584 594.393 296.722 594.391 300.983L594.382 317.106L590.38 317.104L590.388 302.161C590.39 298.553 590.238 296.144 589.931 294.935C589.452 292.862 588.551 291.307 587.227 290.269C585.904 289.213 584.176 288.684 582.046 288.683C579.608 288.682 577.42 289.487 575.48 291.098C573.56 292.71 572.292 294.705 571.677 297.085C571.292 298.639 571.099 301.48 571.097 305.606L571.091 317.094L567.06 317.092L567.076 285.768Z" fill="#2B2B2B"/>
</svg>
