<svg width="28" height="32" viewBox="0 0 28 32" fill="none" xmlns="http://www.w3.org/2000/svg">
<path d="M8.15359 1.93787C8.15359 1.93787 7.69984 0.875 7.00684 0.875C6.32484 0.875 5.97009 1.18988 5.73359 1.40713C5.49709 1.62438 1.53984 4.87625 1.53984 4.87625C1.53984 4.87625 0.388969 5.88137 0.476969 7.772C0.551219 9.66262 0.921094 12.3535 2.84059 16.1017C4.74634 19.8417 9.51622 25.5562 12.5302 27.5651C12.5302 27.5651 15.3228 29.7074 17.9216 30.5777C18.6765 30.8156 20.1862 31.125 20.5382 31.125C20.8957 31.125 21.5268 31.125 22.2515 30.5956C22.9885 30.0607 27.1231 26.736 27.1231 26.736C27.1231 26.736 28.1351 25.8216 26.9595 24.7588C25.7783 23.6959 22.1923 21.3323 21.4251 20.7108C20.6565 20.0796 19.562 20.3574 19.089 20.785C18.6173 21.2154 17.7745 21.9235 17.6713 22.0129C17.5173 22.1311 17.0952 22.5148 16.6222 22.3236C16.02 22.0858 13.5505 20.7451 11.2611 17.6129C8.98547 14.4834 8.73522 13.4604 8.39559 12.3549C8.33799 12.1915 8.3372 12.0134 8.39334 11.8494C8.44948 11.6855 8.55928 11.5453 8.70497 11.4515C9.04597 11.215 10.3013 10.1686 10.3013 10.1686C10.3013 10.1686 11.114 9.367 10.7743 8.42238C10.4347 7.47775 8.15359 1.93787 8.15359 1.93787Z" fill="#2B2B2B"/>
</svg>
