<svg width="26" height="35" viewBox="0 0 26 35" fill="none" xmlns="http://www.w3.org/2000/svg">
<path d="M12.9485 0.000484701C13.007 0.000692225 13.0656 0.000899749 13.1259 0.00111356C16.6628 0.0195787 19.8879 1.50272 22.3761 4.019C24.0906 5.78747 25.1799 8.07175 25.7179 10.4701C25.7291 10.5166 25.7402 10.5632 25.7517 10.6112C26.1458 12.311 26.04 14.3113 25.6505 15.997C25.6382 16.0525 25.6259 16.1079 25.6133 16.1651C24.8053 19.7603 22.873 23.2185 20.7265 26.1638C20.6729 26.2399 20.6195 26.3163 20.5663 26.3927C20.1194 27.0347 19.6505 27.6584 19.1751 28.279C19.1259 28.3435 19.1259 28.3435 19.0757 28.4092C18.6849 28.9203 18.2828 29.4195 17.8677 29.9107C17.7042 30.1047 17.5457 30.3023 17.3877 30.5009C17.1093 30.847 16.8143 31.1747 16.5145 31.5017C16.3758 31.6538 16.2399 31.8072 16.1061 31.9636C13.5667 34.9202 13.5667 34.9202 12.9949 35C12.6029 34.9894 12.4227 34.7597 12.1602 34.4882C12.0795 34.408 11.9987 34.3279 11.9178 34.2478C11.5303 33.862 11.1524 33.474 10.7969 33.0576C10.5866 32.8157 10.365 32.5846 10.1451 32.3517C9.7898 31.9729 9.45075 31.5905 9.12961 31.1816C8.97697 30.9922 8.81635 30.8128 8.65271 30.6331C8.32265 30.2694 8.01368 29.8922 7.70839 29.5072C7.64764 29.4316 7.58686 29.356 7.52606 29.2804C4.7995 25.8778 2.21993 22.0875 0.828342 17.9075C0.806365 17.8416 0.784389 17.7756 0.761747 17.7077C0.348399 16.4472 0.0168658 15.1316 0.00285221 13.7964C0.0021916 13.7441 0.00153099 13.6917 0.000850362 13.6378C-0.0366404 9.89278 1.16474 6.52668 3.76228 3.81886C5.3926 2.14767 7.4659 1.00224 9.69821 0.388563C9.74362 0.375836 9.78904 0.36311 9.83583 0.349998C10.8624 0.0829211 11.8919 -0.00753518 12.9485 0.000484701ZM8.98997 8.69599C8.93962 8.74006 8.88928 8.78412 8.83741 8.82953C7.80819 9.80113 7.14294 11.2537 7.07577 12.6693C7.02614 14.497 7.52851 15.9482 8.72438 17.3161C9.76728 18.4285 11.2931 19.0818 12.7999 19.1402C14.3991 19.1097 15.826 18.5926 17.0167 17.4981C17.0593 17.4606 17.1019 17.423 17.1458 17.3843C18.1584 16.4371 18.7911 14.9789 18.8658 13.6003C18.9224 11.8467 18.4737 10.3408 17.2865 9.03716C17.2495 8.99423 17.2124 8.95131 17.1742 8.90709C16.1924 7.83069 14.6666 7.20667 13.2378 7.12875C11.6277 7.11165 10.2029 7.63035 8.98997 8.69599Z" fill="#2B2B2B"/>
</svg>
